<mxfile host="app.diagrams.net" modified="2023-10-13T05:14:19.198Z" agent="Mozilla/5.0 (Windows NT 10.0; Win64; x64; rv:109.0) Gecko/20100101 Firefox/118.0" etag="HLBAO6_6nVqN_q-emPfB" version="22.0.4" type="device">
  <diagram name="Page-1" id="27tCPwkVYpsogejzKff8">
    <mxGraphModel dx="1500" dy="824" grid="1" gridSize="10" guides="1" tooltips="1" connect="1" arrows="1" fold="1" page="1" pageScale="1" pageWidth="850" pageHeight="1100" math="0" shadow="0">
      <root>
        <mxCell id="0" />
        <mxCell id="1" parent="0" />
        <mxCell id="Xd5qNdtkVlGVfQXWE1ZP-4" value="" style="edgeStyle=orthogonalEdgeStyle;rounded=0;orthogonalLoop=1;jettySize=auto;html=1;" parent="1" source="Xd5qNdtkVlGVfQXWE1ZP-1" target="Xd5qNdtkVlGVfQXWE1ZP-2" edge="1">
          <mxGeometry relative="1" as="geometry" />
        </mxCell>
        <mxCell id="Xd5qNdtkVlGVfQXWE1ZP-1" value="Enter # of cases of Oil" style="shape=parallelogram;perimeter=parallelogramPerimeter;whiteSpace=wrap;html=1;fixedSize=1;" parent="1" vertex="1">
          <mxGeometry x="290" y="219" width="160" height="70" as="geometry" />
        </mxCell>
        <mxCell id="Xd5qNdtkVlGVfQXWE1ZP-6" value="" style="edgeStyle=orthogonalEdgeStyle;rounded=0;orthogonalLoop=1;jettySize=auto;html=1;" parent="1" source="Xd5qNdtkVlGVfQXWE1ZP-2" target="Xd5qNdtkVlGVfQXWE1ZP-5" edge="1">
          <mxGeometry relative="1" as="geometry" />
        </mxCell>
        <mxCell id="Xd5qNdtkVlGVfQXWE1ZP-2" value="Calculate how&amp;nbsp; many litres" style="rounded=0;whiteSpace=wrap;html=1;" parent="1" vertex="1">
          <mxGeometry x="310" y="339" width="120" height="60" as="geometry" />
        </mxCell>
        <mxCell id="Xd5qNdtkVlGVfQXWE1ZP-8" value="" style="edgeStyle=orthogonalEdgeStyle;rounded=0;orthogonalLoop=1;jettySize=auto;html=1;" parent="1" source="Xd5qNdtkVlGVfQXWE1ZP-5" target="Xd5qNdtkVlGVfQXWE1ZP-7" edge="1">
          <mxGeometry relative="1" as="geometry" />
        </mxCell>
        <mxCell id="Xd5qNdtkVlGVfQXWE1ZP-5" value="Count the price before discount" style="whiteSpace=wrap;html=1;rounded=0;" parent="1" vertex="1">
          <mxGeometry x="310" y="449" width="120" height="60" as="geometry" />
        </mxCell>
        <mxCell id="Xd5qNdtkVlGVfQXWE1ZP-10" value="" style="edgeStyle=orthogonalEdgeStyle;rounded=0;orthogonalLoop=1;jettySize=auto;html=1;" parent="1" source="Xd5qNdtkVlGVfQXWE1ZP-7" target="Xd5qNdtkVlGVfQXWE1ZP-9" edge="1">
          <mxGeometry relative="1" as="geometry" />
        </mxCell>
        <mxCell id="hfgRxL4WvVX5MBIiIrOe-4" value="&amp;gt; 8" style="edgeLabel;html=1;align=center;verticalAlign=middle;resizable=0;points=[];" vertex="1" connectable="0" parent="Xd5qNdtkVlGVfQXWE1ZP-10">
          <mxGeometry x="-0.1039" y="4" relative="1" as="geometry">
            <mxPoint as="offset" />
          </mxGeometry>
        </mxCell>
        <mxCell id="Xd5qNdtkVlGVfQXWE1ZP-12" value="" style="edgeStyle=orthogonalEdgeStyle;rounded=0;orthogonalLoop=1;jettySize=auto;html=1;" parent="1" source="Xd5qNdtkVlGVfQXWE1ZP-7" target="Xd5qNdtkVlGVfQXWE1ZP-11" edge="1">
          <mxGeometry relative="1" as="geometry" />
        </mxCell>
        <mxCell id="hfgRxL4WvVX5MBIiIrOe-5" value="&amp;lt;=8" style="edgeLabel;html=1;align=center;verticalAlign=middle;resizable=0;points=[];" vertex="1" connectable="0" parent="Xd5qNdtkVlGVfQXWE1ZP-12">
          <mxGeometry x="-0.1964" y="3" relative="1" as="geometry">
            <mxPoint as="offset" />
          </mxGeometry>
        </mxCell>
        <mxCell id="Xd5qNdtkVlGVfQXWE1ZP-7" value="Cases &amp;gt; 8?" style="rhombus;whiteSpace=wrap;html=1;rounded=0;" parent="1" vertex="1">
          <mxGeometry x="330" y="555" width="80" height="80" as="geometry" />
        </mxCell>
        <mxCell id="Xd5qNdtkVlGVfQXWE1ZP-14" value="" style="edgeStyle=orthogonalEdgeStyle;rounded=0;orthogonalLoop=1;jettySize=auto;html=1;entryX=0.5;entryY=0;entryDx=0;entryDy=0;" parent="1" source="Xd5qNdtkVlGVfQXWE1ZP-9" edge="1" target="hfgRxL4WvVX5MBIiIrOe-3">
          <mxGeometry relative="1" as="geometry">
            <mxPoint x="370" y="809" as="targetPoint" />
          </mxGeometry>
        </mxCell>
        <mxCell id="Xd5qNdtkVlGVfQXWE1ZP-9" value="Price after would be 10% discount off&amp;nbsp;" style="whiteSpace=wrap;html=1;rounded=0;" parent="1" vertex="1">
          <mxGeometry x="310" y="679" width="120" height="60" as="geometry" />
        </mxCell>
        <mxCell id="hfgRxL4WvVX5MBIiIrOe-8" style="edgeStyle=orthogonalEdgeStyle;rounded=0;orthogonalLoop=1;jettySize=auto;html=1;exitX=0.5;exitY=1;exitDx=0;exitDy=0;entryX=1;entryY=0.5;entryDx=0;entryDy=0;" edge="1" parent="1" source="Xd5qNdtkVlGVfQXWE1ZP-11" target="hfgRxL4WvVX5MBIiIrOe-3">
          <mxGeometry relative="1" as="geometry" />
        </mxCell>
        <mxCell id="Xd5qNdtkVlGVfQXWE1ZP-11" value="Price after is same with price before" style="whiteSpace=wrap;html=1;rounded=0;" parent="1" vertex="1">
          <mxGeometry x="490" y="679" width="120" height="60" as="geometry" />
        </mxCell>
        <mxCell id="hfgRxL4WvVX5MBIiIrOe-2" style="edgeStyle=orthogonalEdgeStyle;rounded=0;orthogonalLoop=1;jettySize=auto;html=1;exitX=0.5;exitY=1;exitDx=0;exitDy=0;entryX=0.5;entryY=0;entryDx=0;entryDy=0;" edge="1" parent="1" source="hfgRxL4WvVX5MBIiIrOe-1" target="Xd5qNdtkVlGVfQXWE1ZP-1">
          <mxGeometry relative="1" as="geometry" />
        </mxCell>
        <mxCell id="hfgRxL4WvVX5MBIiIrOe-1" value="Start" style="ellipse;whiteSpace=wrap;html=1;" vertex="1" parent="1">
          <mxGeometry x="310" y="83" width="120" height="80" as="geometry" />
        </mxCell>
        <mxCell id="hfgRxL4WvVX5MBIiIrOe-3" value="End" style="ellipse;whiteSpace=wrap;html=1;" vertex="1" parent="1">
          <mxGeometry x="310" y="811" width="120" height="80" as="geometry" />
        </mxCell>
        <mxCell id="hfgRxL4WvVX5MBIiIrOe-7" value="Calculate Oil Price" style="text;html=1;align=center;verticalAlign=middle;resizable=0;points=[];autosize=1;strokeColor=none;fillColor=none;" vertex="1" parent="1">
          <mxGeometry x="310" y="30" width="120" height="30" as="geometry" />
        </mxCell>
      </root>
    </mxGraphModel>
  </diagram>
</mxfile>
